C:/Users/Peecee/Desktop/ffmpeg/ffmpeg/bin/ffmpeg.exe -hide_banner -y -y -r 10 -start_number 0 -start_number_range 1 -i C:/Users/Peecee/Desktop/PORTFOLIO GITHUB/portfolio/game-art/spinel/frame%04d.png -i C:/Users/Peecee/Desktop/PORTFOLIO GITHUB/portfolio/game-art/spinel/KritaTempPalettegen_%06d.png -lavfi [0:v][1:v]paletteuse=dither=sierra2_4a:diff_mode=none -f gif -loop 0 -gifflags +transdiff C:/Users/Peecee/Desktop/PORTFOLIO GITHUB/portfolio/game-art/spinel/Spin.gif
=====================================================
Input #0, image2, from 'C:/Users/Peecee/Desktop/PORTFOLIO GITHUB/portfolio/game-art/spinel/frame%04d.png':
  Duration: 00:00:00.08, start: 0.000000, bitrate: N/A
    Stream #0:0: Video: png, rgba(pc), 52x54 [SAR 3779:3779 DAR 26:27], 25 tbr, 25 tbn, 25 tbc
Input #1, image2, from 'C:/Users/Peecee/Desktop/PORTFOLIO GITHUB/portfolio/game-art/spinel/KritaTempPalettegen_%06d.png':
  Duration: 00:00:00.04, start: 0.000000, bitrate: N/A
    Stream #1:0: Video: png, rgba(pc), 16x16 [SAR 1:1 DAR 1:1], 25 tbr, 25 tbn, 25 tbc
Stream mapping:
  Stream #0:0 (png) -> paletteuse:default
  Stream #1:0 (png) -> paletteuse:palette
  paletteuse -> Stream #0:0 (gif)
Press [q] to stop, [?] for help
Output #0, gif, to 'C:/Users/Peecee/Desktop/PORTFOLIO GITHUB/portfolio/game-art/spinel/Spin.gif':
  Metadata:
    encoder         : Lavf58.20.100
    Stream #0:0: Video: gif, pal8, 52x54 [SAR 1:1 DAR 26:27], q=2-31, 200 kb/s, 10 fps, 100 tbn, 10 tbc (default)
    Metadata:
      encoder         : Lavc58.35.100 gif
frame=    2 fps=0.0 q=-0.0 Lsize=       2kB time=00:00:00.11 bitrate= 131.7kbits/s speed=36.5x    
video:1kB audio:0kB subtitle:0kB other streams:0kB global headers:0kB muxing overhead: 82.193161%
